# xmcd
#
# Track frame offsets: 
#        150
#        11942
#        25615
#        39122
#        53955
#        64935
#        78980
#        92580
#        105875
#        120072
#        130830
#        142460
#        155142
#        168085
#
# Disc length: 2410 seconds
#
# Revision: 7
# Processed by: cddbd v1.5.2PL0 Copyright (c) Steve Scherf et al.
# Submitted via: ExactAudioCopyFreeDBPlugin 1.0
#
DISCID=aa09680e
DTITLE=Etta James - At Last!
DYEAR=1960
DGENRE=Jazz
TTITLE0=Anything To Say You're Mine
TTITLE1=My Dearest Darling
TTITLE2=Trust In Me
TTITLE3=A Sunday Kind Of Love
TTITLE4=Tough Mary
TTITLE5=I Just Want To Make Love To You
TTITLE6=At Last
TTITLE7=All I Could Do Is Cry
TTITLE8=Stormy Weather
TTITLE9=Girl Of My Dreams
TTITLE10=My Heart Cries [*]
TTITLE11=Spoonful [*]
TTITLE12=It's A Crying Shame [*]
TTITLE13=If I Can't Have You [*]
EXTD=
EXTT0=
EXTT1=
EXTT2=
EXTT3=
EXTT4=
EXTT5=
EXTT6=
EXTT7=
EXTT8=
EXTT9=
EXTT10=
EXTT11=
EXTT12=
EXTT13=
PLAYORDER=
